<?xml version="1.0" encoding="utf-8"?>
<!-- Generator: Adobe Illustrator 16.2.1, SVG Export Plug-In . SVG Version: 6.00 Build 0)  -->
<!DOCTYPE svg PUBLIC "-//W3C//DTD SVG 1.1//EN" "http://www.w3.org/Graphics/SVG/1.1/DTD/svg11.dtd">
<svg version="1.1" id="Layer_1" xmlns="http://www.w3.org/2000/svg" xmlns:xlink="http://www.w3.org/1999/xlink" x="0px" y="0px"
	 width="125px" height="212px" viewBox="0 0 125 212" enable-background="new 0 0 125 212" xml:space="preserve">
<circle fill="#FFFF00" stroke="#000000" cx="62.277" cy="96.796" r="32.955"/>
<path fill="#00BDE7" stroke="#000000" d="M62.455,52.229c11.996,0,22.312,4.342,30.945,13.026
	c8.633,8.685,12.943,19.272,12.943,31.761c0,12.375-4.26,22.845-12.771,31.416c-8.521,8.569-18.854,12.854-31.002,12.854
	c-12.729,0-23.309-4.399-31.729-13.2c-8.421-8.8-12.632-19.253-12.632-31.357c0-8.104,1.96-15.562,5.883-22.362
	c3.923-6.804,9.316-12.191,16.184-16.171C47.14,54.216,54.533,52.229,62.455,52.229z M62.283,68.021
	c-7.854,0-14.447,2.729-19.793,8.186c-5.351,5.457-8.021,12.393-8.021,20.809c0,9.377,3.366,16.794,10.098,22.25
	c5.231,4.271,11.233,6.398,18.007,6.398c7.65,0,14.174-2.768,19.561-8.301s8.078-12.354,8.078-20.463
	c0-8.07-2.711-14.9-8.135-20.492C76.65,70.816,70.053,68.021,62.283,68.021z"/>
<rect x="28.776" y="22.5" fill="#FFFF00" stroke="#000000" width="67" height="27"/>
<path fill="#00BDE7" stroke="#000000" d="M104.672,61.643H19.881V48.311c0-7.729,0.499-13.389,1.498-16.967
	c1.346-5.078,3.844-9.119,7.494-12.119c3.646-3.002,7.954-4.502,12.911-4.502c3.228,0,6.155,0.685,8.79,2.045
	c2.633,1.365,5.102,3.584,7.403,6.658c2.421-5.148,5.447-8.914,9.079-11.298c3.632-2.382,7.929-3.573,12.884-3.573
	c4.771,0,9.106,1.23,13.026,3.693s6.854,5.635,8.791,9.521c1.94,3.885,2.91,9.252,2.91,16.1L104.672,61.643L104.672,61.643z
	 M35.271,45.503H53.14v-3.53c0-3.934-0.825-6.854-2.479-8.766c-1.651-1.909-3.899-2.863-6.744-2.863
	c-2.651,0-4.755,0.906-6.312,2.719c-1.557,1.813-2.335,4.571-2.335,8.273L35.271,45.503L35.271,45.503z M67.551,45.503h21.73v-4.046
	c0-6.705-0.85-11.223-2.535-13.555c-1.691-2.33-4.15-3.496-7.379-3.496c-3.65,0-6.533,1.367-8.646,4.104
	c-2.113,2.737-3.17,7.283-3.17,13.641V45.503z"/>
<path fill="#00BDE7" stroke="#000000" d="M85.728,195.34l-46.86,0.125l-0.042-15.908l15.445-0.041l-0.184-68.883l16.37-0.044
	l0.185,68.882l15.045-0.039L85.728,195.34z"/>
</svg>
