<?xml version="1.0" encoding="utf-8"?>
<!-- Generator: Adobe Illustrator 16.2.1, SVG Export Plug-In . SVG Version: 6.00 Build 0)  -->
<!DOCTYPE svg PUBLIC "-//W3C//DTD SVG 1.1//EN" "http://www.w3.org/Graphics/SVG/1.1/DTD/svg11.dtd">
<svg version="1.1" id="Layer_1" xmlns="http://www.w3.org/2000/svg" xmlns:xlink="http://www.w3.org/1999/xlink" x="0px" y="0px"
	 width="125px" height="212px" viewBox="0 0 125 212" enable-background="new 0 0 125 212" xml:space="preserve">
<circle fill="#FFFF00" stroke="#000000" cx="64.568" cy="96.796" r="32.955"/>
<path fill="#00BDE7" stroke="#000000" d="M63.119,52.229c11.996,0,22.312,4.342,30.945,13.026
	c8.633,8.685,12.944,19.272,12.944,31.761c0,12.375-4.26,22.845-12.772,31.416c-8.521,8.569-18.854,12.854-31.002,12.854
	c-12.729,0-23.308-4.399-31.729-13.2c-8.421-8.8-12.632-19.253-12.632-31.357c0-8.104,1.96-15.562,5.883-22.362
	c3.923-6.804,9.316-12.191,16.184-16.171C47.804,54.216,55.197,52.229,63.119,52.229z M62.947,68.021
	c-7.854,0-14.447,2.729-19.793,8.186c-5.351,5.457-8.021,12.393-8.021,20.809c0,9.377,3.366,16.794,10.098,22.25
	c5.231,4.271,11.233,6.398,18.007,6.398c7.65,0,14.174-2.768,19.561-8.301s8.078-12.354,8.078-20.463
	c0-8.07-2.711-14.9-8.135-20.492C77.314,70.816,70.717,68.021,62.947,68.021z"/>
<rect x="28.5" y="22.5" fill="#FFFF00" stroke="#000000" width="67" height="27"/>
<path fill="#00BDE7" stroke="#000000" d="M103.998,61.643H19.207V48.311c0-7.729,0.499-13.389,1.498-16.967
	c1.346-5.078,3.844-9.119,7.494-12.119c3.646-3.002,7.954-4.502,12.911-4.502c3.228,0,6.155,0.685,8.79,2.045
	c2.633,1.365,5.102,3.584,7.403,6.658c2.421-5.148,5.447-8.914,9.079-11.298c3.632-2.382,7.929-3.573,12.884-3.573
	c4.77,0,9.106,1.23,13.026,3.693s6.854,5.635,8.791,9.521c1.94,3.885,2.91,9.252,2.91,16.1L103.998,61.643L103.998,61.643z
	 M34.597,45.503h17.869v-3.53c0-3.934-0.825-6.854-2.479-8.766c-1.651-1.909-3.899-2.863-6.744-2.863
	c-2.651,0-4.755,0.906-6.312,2.719c-1.557,1.813-2.335,4.571-2.335,8.273L34.597,45.503L34.597,45.503z M66.877,45.503h21.73v-4.046
	c0-6.705-0.849-11.223-2.535-13.555c-1.691-2.33-4.15-3.496-7.379-3.496c-3.65,0-6.533,1.367-8.646,4.104
	c-2.113,2.737-3.17,7.283-3.17,13.641V45.503z"/>
<path stroke="#000000" d="M98.168,193.037l-46.183,7.953l-2.7-15.682l15.224-2.619l-11.688-67.883l16.133-2.777l11.688,67.883
	l14.826-2.553L98.168,193.037z"/>
<path fill="#00BDE7" stroke="#000000" d="M83.723,195.34l-46.86,0.125l-0.042-15.908l15.445-0.041l-0.184-68.883l16.37-0.044
	l0.185,68.882l15.045-0.039L83.723,195.34z"/>
<g>
	<path fill="#FF0000" d="M21.878,76.421l-2.43,2.146c-0.854-1.188-1.726-1.779-2.606-1.779c-0.43,0-0.783,0.113-1.056,0.346
		c-0.274,0.229-0.411,0.49-0.411,0.779s0.098,0.562,0.293,0.818c0.266,0.346,1.068,1.082,2.406,2.215
		c1.252,1.049,2.011,1.707,2.274,1.979c0.665,0.673,1.14,1.314,1.414,1.929c0.278,0.613,0.417,1.283,0.417,2.012
		c0,1.412-0.485,2.58-1.466,3.504c-0.978,0.922-2.252,1.383-3.825,1.383c-1.228,0-2.297-0.301-3.208-0.9
		c-0.907-0.603-1.688-1.549-2.34-2.836l2.758-1.664c0.829,1.521,1.784,2.283,2.864,2.283c0.563,0,1.037-0.162,1.42-0.49
		c0.386-0.328,0.575-0.707,0.575-1.139c0-0.391-0.146-0.779-0.435-1.172c-0.29-0.393-0.931-0.986-1.913-1.793
		c-1.878-1.531-3.093-2.713-3.643-3.545c-0.548-0.832-0.818-1.662-0.818-2.49c0-1.193,0.456-2.221,1.364-3.074
		c0.91-0.854,2.035-1.283,3.373-1.283c0.86,0,1.684,0.197,2.459,0.599C20.128,74.641,20.971,75.367,21.878,76.421z"/>
	<path fill="#FF0000" d="M25.3,74.078h3.48c1.883,0,3.239,0.174,4.068,0.521c0.832,0.346,1.488,0.907,1.973,1.688
		c0.479,0.777,0.721,1.709,0.721,2.795c0,1.203-0.313,2.203-0.943,3c-0.629,0.797-1.479,1.352-2.561,1.664
		c-0.633,0.18-1.785,0.27-3.457,0.27v7.301H25.3V74.078z M28.582,80.816h1.043c0.82,0,1.391-0.062,1.711-0.176
		c0.32-0.117,0.572-0.312,0.756-0.582c0.188-0.271,0.275-0.601,0.275-0.982c0-0.666-0.258-1.152-0.773-1.458
		c-0.375-0.228-1.066-0.341-2.086-0.341h-0.926V80.816z"/>
	<path fill="#FF0000" d="M38.765,74.078h9.41v3.211h-6.148v3.117h6.148v3.152h-6.148v4.532h6.148v3.226h-9.41V74.078z"/>
	<path fill="#FF0000" d="M51.234,74.078h3.277v14.109h4.781v3.129H51.23L51.234,74.078L51.234,74.078z"/>
	<path fill="#FF0000" d="M61.792,74.078h3.282v14.109h4.781v3.129h-8.063V74.078z"/>
	<path fill="#FF0000" d="M72.117,74.078h3.258v17.238h-3.258V74.078z"/>
	<path fill="#FF0000" d="M79.078,74.078h3.146l7.377,11.344V74.078h3.28v17.238h-3.155l-7.363-11.312v11.312h-3.281L79.078,74.078
		L79.078,74.078z"/>
	<path fill="#FF0000" d="M112.734,76.891l-2.312,2.284c-1.463-1.547-3.168-2.319-5.111-2.319c-1.694,0-3.117,0.562-4.266,1.688
		c-1.146,1.125-1.719,2.492-1.719,4.103c0,1.664,0.594,3.074,1.783,4.229c1.188,1.156,2.649,1.733,4.396,1.733
		c1.136,0,2.091-0.237,2.869-0.715c0.776-0.479,1.405-1.225,1.883-2.237h-4.991v-3.082h8.676l0.021,0.727
		c0,1.509-0.392,2.938-1.172,4.289c-0.781,1.351-1.793,2.384-3.035,3.095c-1.241,0.711-2.698,1.065-4.371,1.065
		c-1.788,0-3.385-0.39-4.786-1.166c-1.398-0.776-2.513-1.885-3.326-3.321c-0.814-1.438-1.228-2.988-1.228-4.652
		c0-2.279,0.754-4.266,2.263-5.951c1.789-2.01,4.116-3.014,6.983-3.014c1.5,0,2.901,0.276,4.207,0.832
		C110.602,74.945,111.68,75.75,112.734,76.891z"/>
</g>
</svg>
